<?xml version="1.0" encoding="UTF-8"?>
<svg id="Layer_1" data-name="Layer 1" xmlns="http://www.w3.org/2000/svg" viewBox="0 0 28 28">
  <path d="M17.91,22.25c-.72,0-1.3.58-1.3,1.3s.58,1.3,1.3,1.3,1.3-.58,1.3-1.3-.58-1.3-1.3-1.3ZM17.91,23.99c-.24,0-.43-.19-.43-.43s.19-.43.43-.43.43.19.43.43-.19.43-.43.43Z"/>
  <g>
    <path d="M19.57,11.91c-.1-.17-.22-.32-.36-.44v-6.59c0-.96-.78-1.74-1.74-1.74h-4.03c-.15-.26-.43-.43-.75-.43h-.48c-.2-.99-1.08-1.74-2.13-1.74s-1.93.75-2.13,1.74h-.48c-.32,0-.6.18-.75.43H2.71c-.96,0-1.74.78-1.74,1.74v19.11c0,.96.78,1.74,1.74,1.74h6.19c.04.11.09.22.15.33.35.61.97.97,1.68.97h14.37c.7,0,1.33-.36,1.68-.97.35-.61.34-1.33-.01-1.94l-7.19-12.21h0ZM18.34,4.88v6.13c-.14-.03-.29-.05-.43-.05s-.29.02-.43.05v-5.26c0-.48-.39-.87-.87-.87h-3.04v-.87h3.91c.48,0,.87.39.87.87ZM7.49,3.58h.87c.24,0,.43-.19.43-.43,0-.72.58-1.3,1.3-1.3s1.3.58,1.3,1.3c0,.24.19.43.43.43h.87s0,1.74,0,1.74h-5.21v-1.74ZM12.7,6.18c.32,0,.6-.18.75-.43h3.16v5.72c-.14.13-.26.27-.36.44l-6.6,11.21H3.58V5.75h3.16c.15.26.43.43.75.43h5.21ZM1.84,23.99V4.88c0-.48.39-.87.87-.87h3.91v.87h-3.04c-.48,0-.87.39-.87.87v17.37c0,.48.39.87.87.87h5.56l-.08.13c-.14.23-.22.48-.25.74H2.71c-.48,0-.87-.39-.87-.87ZM26.02,25.62c-.19.33-.54.53-.92.53h-14.37c-.39,0-.73-.2-.92-.53-.19-.33-.19-.73,0-1.06l7.19-12.21c.19-.33.53-.52.92-.52s.72.2.92.52l7.19,12.21c.19.33.2.73,0,1.06Z"/>
    <path d="M10.09,2.71c-.24,0-.43.19-.43.43h0c0,.25.19.44.43.44s.43-.2.43-.44-.19-.43-.43-.43h0Z"/>
  </g>
  <path d="M4.88,9.66c0,.24.19.43.43.43h6.08c.24,0,.43-.19.43-.43s-.19-.43-.43-.43h-6.08c-.24,0-.43.19-.43.43Z"/>
  <path d="M13.69,10.4c.08.08.19.13.31.13,0,0,.02,0,.03,0,.13,0,.24-.07.32-.17l1.3-1.74c.14-.19.11-.46-.09-.61-.19-.14-.46-.11-.61.09l-1,1.34-.08-.08c-.17-.17-.44-.17-.61,0s-.17.44,0,.61l.43.43Z"/>
  <path d="M11.39,14h-6.08c-.24,0-.43.19-.43.43s.19.43.43.43h6.08c.24,0,.43-.19.43-.43s-.19-.43-.43-.43Z"/>
  <path d="M10.53,18.78h-5.21c-.24,0-.43.19-.43.43s.19.43.43.43h5.21c.24,0,.43-.19.43-.43s-.19-.43-.43-.43Z"/>
  <path d="M17.91,20.95c.24,0,.43-.19.43-.43v-5.65c0-.24-.19-.43-.43-.43s-.43.19-.43.43v5.65c0,.24.19.43.43.43Z"/>
</svg>