<?xml version="1.0" encoding="UTF-8"?>
<svg id="Layer_1" data-name="Layer 1" xmlns="http://www.w3.org/2000/svg" viewBox="0 0 28 28">
  <path d="M6.22,13.2c.17-.17.17-.45,0-.62-2.44-2.44-2.44-6.42,0-8.86,2.44-2.44,6.42-2.45,8.86,0,2.44,2.44,2.44,6.42,0,8.86-.03.03-.05.07-.08.11-.26-.52-.82-.73-1.24-.74h-1.3v-4.18c0-.39-.14-1.69-1.89-1.69-1.17,0-1.78.63-1.81,1.89-.05,2.15-.05,7.73-.04,9.98-.52-.45-1.18-1.03-1.48-1.3-.69-.64-1.52-.68-2.21-.12-.92.75-.48,1.92-.12,2.41l4.99,7.84c.08.13.22.2.37.2h7.87c.19,0,.35-.12.41-.3.07-.21,1.76-5.17,2.02-6.97.11-.75.07-1.97.03-3.04-.02-.45-.03-.86-.03-1.18,0-1.16-1.11-1.54-1.73-1.58h-1.07c-.09-.29-.23-.5-.36-.62-.43-.4-.99-.38-1.03-.38h-.43c2.51-2.8,2.43-7.12-.26-9.81C12.91.32,8.38.32,5.6,3.1c-2.78,2.78-2.78,7.32,0,10.1.17.17.45.17.62,0ZM16.41,13.79s.24,0,.4.14c.11.1.16.27.16.5v1.25c0,.24.2.44.44.44s.44-.2.44-.44v-.9h.96c.09,0,.88.08.88.71,0,.33.01.75.03,1.21.03.99.07,2.21-.02,2.89-.21,1.47-1.5,5.4-1.88,6.51h-7.31l-4.87-7.65s-.57-.83-.05-1.25c.13-.11.52-.42,1.07.08.53.48,2.22,1.95,2.22,1.95.13.11.31.14.47.07s.25-.23.25-.4c0-.08-.02-8.22.04-10.92.01-.58.09-1.03.93-1.03.69,0,1.01.26,1.01.81v6.97c0,.24.2.44.44.44s.44-.2.44-.44v-1.91h1.28c.2,0,.52.09.52.52v1.46c0,.24.2.44.44.44s.44-.2.44-.44v-1.02h1.26Z"/>
  <path d="M19.03,8.59h3.97l-2.61,2.6c-.17.17-.17.45,0,.62.09.09.2.13.31.13s.22-.04.31-.13l3.35-3.35s.02-.03.03-.04c.03-.03.05-.06.07-.1.04-.11.04-.23,0-.34-.02-.04-.04-.07-.07-.1,0-.01-.01-.03-.03-.04l-3.35-3.35c-.17-.17-.45-.17-.62,0s-.17.45,0,.62l2.61,2.6h-3.97c-.24,0-.44.2-.44.44s.2.44.44.44Z"/>
</svg>