<?xml version="1.0" encoding="UTF-8"?>
<svg id="Layer_1" data-name="Layer 1" xmlns="http://www.w3.org/2000/svg" viewBox="0 0 28 28">
  <g id="surface1">
    <path d="M20,12.22v-5.01c0-.14-.07-.28-.16-.38L14.22.94c-.1-.11-.25-.17-.4-.17H4.92c-1.64,0-2.96,1.34-2.96,2.98v16.83c0,1.64,1.31,2.96,2.96,2.96h7.03c1.33,2.21,3.74,3.68,6.5,3.68,4.18,0,7.59-3.4,7.59-7.58,0-3.66-2.62-6.71-6.04-7.42ZM14.37,2.7l3.77,3.97h-2.44c-.73,0-1.32-.6-1.32-1.33v-2.64ZM4.92,22.44c-1.03,0-1.85-.83-1.85-1.86V3.75c0-1.04.82-1.88,1.85-1.88h8.35v3.47c0,1.34,1.09,2.43,2.43,2.43h3.2v4.31c-.17,0-.3-.02-.44-.02-1.92,0-3.7.74-5.03,1.9h-7c-.3,0-.55.25-.55.55s.25.55.55.55h5.98c-.39.55-.72,1.1-.97,1.71h-5.01c-.3,0-.55.25-.55.55s.25.55.55.55h4.65c-.14.55-.21,1.16-.21,1.78,0,.99.19,1.97.54,2.8h-6.48ZM18.45,26.13c-3.57,0-6.48-2.91-6.48-6.48s2.9-6.48,6.48-6.48,6.48,2.91,6.48,6.48-2.91,6.48-6.48,6.48Z"/>
    <path d="M6.42,12.3h5.59c.3,0,.55-.25.55-.55s-.25-.55-.55-.55h-5.59c-.3,0-.55.25-.55.55s.25.55.55.55Z"/>
    <path d="M18.84,15.58c-.1-.11-.25-.18-.4-.18s-.3.07-.4.18l-3.23,3.47c-.21.22-.19.57.03.78.22.21.58.19.79-.03l2.28-2.44v6.02c0,.3.25.55.55.55s.55-.25.55-.55v-6.02l2.27,2.44c.11.12.25.18.4.18.13,0,.26-.05.37-.15.22-.21.24-.56.03-.78l-3.24-3.47Z"/>
  </g>
</svg>