<?xml version="1.0" encoding="UTF-8"?>
<svg id="Layer_1" data-name="Layer 1" xmlns="http://www.w3.org/2000/svg" viewBox="0 0 28 28">
  <path d="M17.12,7.11c0-1.72-1.4-3.12-3.12-3.12s-3.12,1.4-3.12,3.12,1.4,3.12,3.12,3.12,3.12-1.4,3.12-3.12ZM11.72,7.11c0-1.26,1.02-2.28,2.28-2.28s2.28,1.02,2.28,2.28-1.02,2.28-2.28,2.28-2.28-1.02-2.28-2.28ZM25.15,23.53v-2.38c0-.53-.43-.96-.96-.96h-1.75v-2.8c0-.23-.19-.42-.42-.42h-7.61v-3.35h.11c.31,0,.59-.2.69-.5l.24-.72c.44-.12.86-.29,1.25-.52l.68.35c.28.14.62.09.84-.14l.74-.74c.22-.22.28-.56.13-.84l-.34-.68c.22-.4.4-.82.52-1.25l.73-.24c.3-.1.5-.38.5-.69v-1.05c0-.32-.2-.59-.5-.69l-.72-.24c-.12-.44-.29-.86-.52-1.25l.34-.68c.14-.28.09-.62-.13-.84l-.74-.74c-.22-.22-.56-.28-.84-.13l-.68.34c-.4-.22-.82-.4-1.25-.52l-.24-.73c-.1-.3-.38-.5-.69-.5h-1.05c-.31,0-.59.2-.69.5l-.24.72c-.44.12-.86.29-1.25.52l-.68-.34c-.28-.14-.62-.09-.84.13l-.74.74c-.22.22-.28.56-.13.84l.34.68c-.23.4-.4.82-.52,1.25l-.72.23c-.3.1-.5.37-.5.69v1.05c0,.31.2.59.5.69l.72.24c.12.43.29.86.52,1.25l-.34.68c-.14.28-.09.62.13.84l.74.74c.22.22.56.28.84.13l.68-.35c.39.22.82.4,1.25.52l.24.73c.1.3.38.5.69.5h.11v3.35h-7.61c-.23,0-.42.19-.42.42v2.8h-1.75c-.53,0-.96.43-.96.96v.58c-.34.15-.57.49-.57.88v3.83c0,.53.43.96.96.96h5.47c.53,0,.96-.43.96-.96v-2.02c0-.39-.23-.73-.57-.88v-2.38c0-.53-.43-.96-.96-.96h-1.75v-2.39h15.22v2.39h-1.75c-.53,0-.96.43-.96.96v.58c-.34.15-.57.49-.57.88v3.83c0,.53.43.96.96.96h5.47c.53,0,.96-.43.96-.96v-2.02c0-.39-.23-.73-.57-.88h0ZM13.33,12.07c-.08-.24-.26-.42-.51-.48-.4-.11-.79-.27-1.15-.48-.22-.13-.47-.13-.7-.02l-.66.34-.63-.63.34-.66c.11-.23.1-.48-.02-.69-.21-.36-.37-.75-.48-1.15-.07-.24-.24-.43-.48-.5l-.71-.23v-.89l.71-.23c.24-.08.41-.26.48-.51.11-.4.27-.79.48-1.15.13-.21.13-.48.02-.7l-.34-.66.63-.63.66.34c.22.11.48.1.7-.02.36-.21.75-.37,1.15-.48,0,0,0,0,0,0,.24-.07.43-.24.5-.48l.23-.71h.89l.23.7c.08.24.26.41.51.48.4.11.79.27,1.15.48.22.13.47.13.7.02l.66-.34.63.63-.34.66c-.11.22-.11.48.02.7.21.36.37.75.48,1.15.06.24.24.43.48.51l.7.23v.89l-.7.23c-.24.08-.41.26-.48.51-.11.4-.27.79-.48,1.15-.13.22-.13.47-.02.7l.34.66-.63.63-.66-.34c-.22-.11-.48-.1-.7.02-.36.21-.75.37-1.15.48-.25.07-.43.24-.5.48l-.23.7h-.89l-.23-.7ZM8.83,26.42c0,.07-.06.13-.13.13H3.24c-.07,0-.13-.06-.13-.13v-3.83c0-.07.06-.13.13-.13h1.77s.08.02.11.06l.85,1.31c.18.28.48.44.81.44h1.93c.07,0,.13.06.13.13v2.02h0ZM8.26,21.14v2.3h-1.49s-.08-.02-.11-.06l-.85-1.31c-.18-.28-.48-.44-.81-.44h-1.33v-.49c0-.07.06-.13.13-.13h4.33c.07,0,.13.06.13.13ZM19.86,21.01h4.33c.07,0,.13.06.13.13v2.3h-1.49s-.08-.02-.11-.06l-.85-1.31c-.18-.28-.48-.44-.81-.44h-1.33v-.49c0-.07.06-.13.13-.13h0ZM24.89,26.42c0,.07-.06.13-.13.13h-5.47c-.07,0-.13-.06-.13-.13v-3.83c0-.07.06-.13.13-.13h1.77s.08.02.11.06l.85,1.31c.18.28.48.44.81.44h1.93c.07,0,.13.06.13.13v2.02Z"/>
</svg>