<?xml version="1.0" encoding="UTF-8"?>
<svg id="Layer_1" data-name="Layer 1" xmlns="http://www.w3.org/2000/svg" viewBox="0 0 28 28">
  <path d="M5.04.73c-.53,0-1.07.16-1.53.52-.71.47-1.1,1.26-1.1,2.13v10.13c0,.26.21.47.47.47s.47-.21.47-.47V3.38c0-.56.25-1.05.68-1.34l.03-.02.03-.02c.27-.21.59-.32.95-.32.18,0,.37.03.55.08l18.34,5.76c.99.31,1.66,1.23,1.66,2.27v12.78c0,1-.81,1.81-1.8,1.81-.18,0-.36-.03-.53-.08-.86-.26-1.78-.54-2.73-.83-.3-.09-.61.13-.61.45,0,.21.14.39.34.45.95.29,1.87.57,2.73.83.27.08.54.12.8.12,1.47,0,2.75-1.19,2.75-2.76v-12.78c0-1.45-.94-2.73-2.33-3.17L5.88.86c-.27-.08-.55-.13-.83-.13ZM20.86,9.25c-.26,0-.47.21-.47.47s.21.47.47.47h.95c.26,0,.47-.21.47-.47s-.21-.47-.47-.47h-.95ZM17.4,9.73c-.95-.05-1.74.71-1.74,1.65v14.13c0,.9.67,1.7,1.57,1.75.95.05,1.74-.71,1.74-1.65v-14.13c0-.9-.67-1.7-1.57-1.75ZM17.31,10.67c.39,0,.71.32.71.71v14.23c0,.39-.32.71-.71.71s-.71-.32-.71-.71v-14.23c0-.39.32-.71.71-.71ZM12.58,11.62c-.91,0-1.66.74-1.66,1.66v10.88c0,.91.74,1.66,1.66,1.66s1.66-.74,1.66-1.66v-10.88c0-.91-.74-1.66-1.66-1.66ZM20.86,11.62c-.26,0-.47.21-.47.47s.21.47.47.47h.95c.26,0,.47-.21.47-.47s-.21-.47-.47-.47h-.95ZM12.58,12.56c.39,0,.71.32.71.71v10.88c0,.39-.32.71-.71.71s-.71-.32-.71-.71v-10.88c0-.39.32-.71.71-.71ZM7.85,13.51c-.91,0-1.66.74-1.66,1.66v7.1c0,.91.74,1.66,1.66,1.66s1.66-.74,1.66-1.66v-7.1c0-.91-.74-1.66-1.66-1.66ZM20.86,13.98c-.26,0-.47.21-.47.47s.21.47.47.47h.95c.26,0,.47-.21.47-.47s-.21-.47-.47-.47h-.95ZM7.85,14.46c.39,0,.71.32.71.71v7.1c0,.39-.32.71-.71.71s-.71-.32-.71-.71v-7.1c0-.39.32-.71.71-.71ZM3.12,14.93c-.91,0-1.66.74-1.66,1.66v3.69c0,.9.67,1.7,1.57,1.75.95.05,1.74-.71,1.74-1.65v-3.79c0-.91-.74-1.66-1.66-1.66ZM3.12,15.88c.39,0,.71.32.71.71v3.79c0,.39-.32.71-.71.71s-.71-.32-.71-.71v-3.79c0-.39.32-.71.71-.71ZM20.86,16.35c-.26,0-.47.21-.47.47s.21.47.47.47h.95c.26,0,.47-.21.47-.47s-.21-.47-.47-.47h-.95ZM20.86,18.72c-.26,0-.47.21-.47.47s.21.47.47.47h.95c.26,0,.47-.21.47-.47s-.21-.47-.47-.47h-.95ZM20.86,21.08c-.26,0-.47.21-.47.47s.21.47.47.47h.95c.26,0,.47-.21.47-.47s-.21-.47-.47-.47h-.95Z"/>
</svg>