<?xml version="1.0" encoding="iso-8859-1"?>
<!-- Generator: Adobe Illustrator 19.0.0, SVG Export Plug-In . SVG Version: 6.00 Build 0)  -->
<svg version="1.1" id="Capa_1" xmlns="http://www.w3.org/2000/svg" xmlns:xlink="http://www.w3.org/1999/xlink" x="0px" y="0px"
	 viewBox="0 0 512.001 512.001" style="enable-background:new 0 0 512.001 512.001;" xml:space="preserve">
<g>
	<g>
		<g>
			<rect x="164.933" y="317.354" width="14.939" height="14.939"/>
			<rect x="164.933" y="342.253" width="14.939" height="14.939"/>
			<rect x="215.159" y="230.257" width="14.939" height="14.939"/>
			<rect x="264.957" y="230.257" width="54.619" height="14.939"/>
			<rect x="240.058" y="230.257" width="14.939" height="14.939"/>
			<rect x="215.159" y="255.863" width="104.417" height="14.939"/>
			<rect x="254.739" y="281.469" width="14.939" height="14.939"/>
			<rect x="279.638" y="281.469" width="14.939" height="14.939"/>
			<rect x="304.537" y="281.469" width="14.939" height="14.939"/>
			<path d="M112.328,312.772v-14.939c-36.654,0-66.475-29.82-66.475-66.476H30.914C30.914,276.249,67.436,312.772,112.328,312.772z"
				/>
			<path d="M457.712,174.119l-10.641,10.487c12.303,12.483,19.078,29.087,19.078,46.751h14.939
				C481.089,209.744,472.787,189.417,457.712,174.119z"/>
			<path d="M387.961,127.356c-0.061-33.997-17.42-65.005-46.439-82.943l-7.857,12.706c24.592,15.204,39.305,41.471,39.357,70.264
				L387.961,127.356z"/>
			<path d="M316.92,33.565l-4.076,14.374c4.376,1.24,8.684,2.861,12.804,4.816l6.405-13.496
				C327.184,36.948,322.092,35.032,316.92,33.565z"/>
			<path d="M290.305,29.879v14.939c4.574,0,9.163,0.378,13.64,1.123l2.453-14.737C301.114,30.325,295.699,29.879,290.305,29.879z"/>
			<path d="M482.079,156.554c-17.001-18.718-39.661-31.004-64.38-35.035C414.546,53.979,358.611,0,290.305,0
				c-26.575,0-52.044,8.095-73.656,23.41c-18.896,13.392-33.611,31.365-42.913,52.315c-6.374-2.47-13.188-3.755-20.071-3.755
				c-28.402,0-51.894,21.421-55.172,48.954c-55.159,6.854-97.459,54.135-97.459,110.432c0,1.759,0.042,3.539,0.124,5.291l14.924-0.7
				c-0.072-1.52-0.108-3.065-0.108-4.589c0-50.602,39.463-92.787,89.88-96.13h42.915v-14.939h-35.066
				c3.428-18.953,20.037-33.378,39.963-33.378c7.116,0,14.126,1.876,20.272,5.425l7.668,4.429l3.074-8.305
				c16.272-43.974,58.721-73.519,105.626-73.519c62.084,0,112.595,50.509,112.595,112.594l-0.043,7.285l6.746,0.689
				c49.27,5.041,86.425,46.247,86.425,95.849c0,53.131-43.224,96.354-96.354,96.354h-29.33V179.03H163.2l-21.542,21.543v127.139
				h-29.33c-46.113,0-85.903-32.808-94.612-78.011l-14.67,2.827c10.06,52.221,56.019,90.124,109.281,90.124h29.33v111.025
				l21.544,21.543h12.392v36.782l28.276-15.26l28.276,15.26v-36.782h138.199V374.256h-14.939v19.241H226.271v14.939h129.134v18.451
				h-26.587v14.939h26.587v18.45H232.145v-18.45h81.732v-14.939H164.482v14.939h11.11v18.45h-6.204l-12.792-12.791v-26.259
				l12.792-12.792h41.942v-14.939h-48.13l-6.604,6.604V206.761l8.333-8.333v108.964h14.939V193.97h175.535v165.348h14.939v-16.666
				h29.33c61.367,0,111.293-49.927,111.293-111.294C510.968,203.629,500.709,177.062,482.079,156.554z M190.532,441.828h26.674
				v45.132l-13.337-7.198l-13.337,7.198V441.828z"/>
			<rect x="411.424" y="421.522" width="14.939" height="14.939"/>
			<rect x="411.424" y="446.421" width="14.939" height="14.939"/>
			<polygon points="390.563,384.178 401.125,394.743 411.428,384.442 411.428,411.557 426.367,411.557 426.367,384.442 
				436.667,394.743 447.232,384.178 418.897,355.845 			"/>
			<rect x="85.793" y="366.405" width="14.939" height="14.939"/>
			<rect x="85.793" y="391.304" width="14.939" height="14.939"/>
			<polygon points="100.73,443.322 100.73,416.207 85.79,416.207 85.79,443.321 75.49,433.02 64.926,443.585 93.26,471.918 
				121.594,443.585 111.032,433.02 			"/>
		</g>
	</g>
</g>
<g>
</g>
<g>
</g>
<g>
</g>
<g>
</g>
<g>
</g>
<g>
</g>
<g>
</g>
<g>
</g>
<g>
</g>
<g>
</g>
<g>
</g>
<g>
</g>
<g>
</g>
<g>
</g>
<g>
</g>
</svg>
