<svg id="Layer_1" viewBox="0 0 512 512" xmlns="http://www.w3.org/2000/svg" data-name="Layer 1"><path d="m347.082 214.653h-43.88c-3.313 0-6 2.687-6 6v83.412c0 3.313 2.687 6 6 6h43.88c3.313 0 6-2.687 6-6v-83.412c0-3.313-2.687-6-6-6zm-6 83.412h-31.88v-71.412h31.88zm-59.111-105.711h-43.88c-3.313 0-6 2.687-6 6v105.711c0 3.313 2.687 6 6 6h43.88c3.313 0 6-2.687 6-6v-105.711c0-3.313-2.687-6-6-6zm-6 105.711h-31.88v-93.711h31.88zm-36.639-139.806c0-3.313 2.687-6 6-6s6 2.687 6 6c0 3.638 3.983 6.711 8.699 6.711s8.698-3.073 8.698-6.711c0-3.998-1.334-4.944-9.519-6.751-6.722-1.484-17.972-3.967-17.972-17.022 0-7.502 5.367-13.875 12.792-16.155v-2.783c0-3.313 2.687-6 6-6s6 2.687 6 6v2.783c7.425 2.28 12.791 8.653 12.791 16.155 0 3.313-2.687 6-6 6s-6-2.687-6-6c0-2.744-3.11-5.062-6.791-5.062s-6.792 2.318-6.792 5.062c0 2.651.364 3.496 8.559 5.305 7.081 1.563 18.932 4.179 18.932 18.469 0 8.431-6.203 15.572-14.698 17.903v2.684c0 3.313-2.687 6-6 6s-6-2.687-6-6v-2.684c-8.496-2.331-14.699-9.472-14.699-17.903zm178.861 65.315c0 .384-.04.758-.108 1.121-.002.011-.003.023-.005.034-.072.368-.179.722-.315 1.063-.007.019-.013.038-.021.056-.144.349-.319.68-.523.993-.01.015-.018.031-.028.047-.443.668-1.016 1.241-1.684 1.684-.018.012-.037.022-.055.034-.31.201-.638.375-.983.517-.023.009-.046.016-.069.025-.336.133-.686.24-1.048.311-.018.004-.036.005-.054.008-.359.067-.728.106-1.106.106h-18.468c-3.313 0-6-2.687-6-6s2.687-6 6-6h3.982l-31.112-31.112-25.217 14.559c-2.351 1.358-5.322.967-7.242-.954l-43.385-43.385c-2.344-2.343-2.344-6.142 0-8.485 2.342-2.343 6.143-2.343 8.484 0l40.13 40.129 25.217-14.559c2.353-1.357 5.323-.967 7.242.954l34.368 34.369v-3.984c0-3.313 2.687-6 6-6s6 2.687 6 6v18.468zm29.041 125.986c2.459-2.21 4.875-4.489 7.208-6.821 34.538-34.537 53.559-80.457 53.559-129.3s-19.021-94.763-53.559-129.3c-34.537-34.537-80.457-53.558-129.3-53.558s-94.763 19.021-129.3 53.558c-2.208 2.208-4.351 4.464-6.431 6.763l-5.127-5.127c-2.539-2.539-5.92-3.938-9.521-3.938s-6.981 1.398-9.52 3.938l-4.137 4.135c-5.869-3.19-12.039-5.749-18.431-7.643v-5.84c0-7.424-6.04-13.464-13.465-13.464h-27.724c-7.424 0-13.464 6.04-13.464 13.464v5.844c-6.39 1.894-12.561 4.452-18.43 7.641l-4.138-4.138c-2.539-2.539-5.92-3.938-9.521-3.938s-6.981 1.398-9.52 3.938l-19.604 19.603c-5.25 5.25-5.25 13.792 0 19.042l4.135 4.135c-3.189 5.869-5.748 12.04-7.644 18.432h-5.84c-7.424 0-13.464 6.04-13.464 13.464v27.724c0 7.424 6.04 13.464 13.464 13.464h5.84c1.896 6.394 4.454 12.564 7.644 18.432l-4.135 4.135c-2.54 2.54-3.938 5.92-3.938 9.521s1.398 6.981 3.938 9.521l19.603 19.603c2.539 2.54 5.92 3.938 9.521 3.938s6.981-1.398 9.521-3.938l4.138-4.139c5.871 3.19 12.041 5.749 18.429 7.643v5.844c0 7.424 6.04 13.464 13.464 13.464h27.724c7.425 0 13.465-6.04 13.465-13.464v-5.84c2.256-.67 4.489-1.424 6.691-2.259 5.845 20.39 15.228 39.597 27.84 56.871l-30.296 30.296c-2.15-.964-4.495-1.486-6.928-1.486-4.526 0-8.773 1.754-11.958 4.94l-65.917 65.917c-3.187 3.186-4.94 7.433-4.94 11.958s1.754 8.773 4.94 11.958l31.92 31.92c3.297 3.297 7.627 4.945 11.958 4.945s8.661-1.648 11.958-4.945l65.917-65.917c3.187-3.186 4.94-7.433 4.94-11.958 0-2.432-.522-4.778-1.486-6.928l30.313-30.313c26.111 19.007 56.812 30.774 89.193 34.015l-24.647 42.69c-5.303 9.184-5.303 19.718 0 28.901 5.302 9.183 14.424 14.45 25.028 14.45h166.099c10.604 0 19.728-5.267 25.029-14.45 5.303-9.184 5.303-19.718 0-28.901l-51.097-88.503zm-311.976-93.627c-2.688.654-4.582 3.062-4.582 5.83v10.434c0 .794-.671 1.464-1.465 1.464h-27.724c-.794 0-1.464-.67-1.464-1.464v-10.439c0-2.768-1.894-5.177-4.583-5.83-8.357-2.031-16.337-5.34-23.717-9.834-2.365-1.439-5.407-1.075-7.364.882l-7.388 7.389c-.351.35-.757.423-1.036.423s-.685-.073-1.035-.423l-19.604-19.604c-.35-.349-.423-.755-.423-1.035s.073-.686.423-1.035l7.386-7.385c1.958-1.958 2.322-5 .882-7.365-4.492-7.372-7.802-15.353-9.836-23.72-.654-2.689-3.062-4.583-5.83-4.583h-10.435c-.794 0-1.464-.67-1.464-1.464v-27.724c0-.793.67-1.464 1.464-1.464h10.435c2.768 0 5.176-1.893 5.83-4.583 2.034-8.365 5.343-16.345 9.836-23.72 1.44-2.364 1.076-5.407-.882-7.364l-7.386-7.386c-.561-.561-.561-1.51 0-2.071l19.604-19.604c.35-.349.755-.422 1.034-.422s.686.074 1.036.423l7.388 7.388c1.956 1.958 4.998 2.32 7.363.882 7.376-4.493 15.356-7.801 23.718-9.833 2.689-.653 4.583-3.062 4.583-5.83v-10.439c0-.794.67-1.464 1.464-1.464h27.724c.794 0 1.465.67 1.465 1.464v10.435c0 2.768 1.894 5.176 4.583 5.83 8.363 2.033 16.344 5.342 23.718 9.835 2.362 1.44 5.405 1.077 7.364-.881l7.388-7.387c.349-.349.755-.422 1.034-.422s.687.074 1.036.423l5.833 5.833c-8.331 10.505-15.416 21.797-21.181 33.694-11.393-12.735-27.61-20.098-45.102-20.098-33.428 0-60.623 27.195-60.623 60.623s27.195 60.623 60.623 60.623c9.721 0 19.074-2.267 27.539-6.603.651 8.13 1.834 16.15 3.532 24.023-3.634 1.448-7.369 2.656-11.163 3.578zm7.025-42.494c0 .448.013.893.016 1.34-7.983 5.339-17.237 8.155-26.95 8.155-26.811 0-48.623-21.812-48.623-48.623s21.812-48.623 48.623-48.623c15.922 0 30.531 7.606 39.66 20.488-8.348 21.131-12.727 43.858-12.727 67.262zm33.094 188.632-65.917 65.917c-1.916 1.915-5.031 1.915-6.947 0l-31.92-31.92c-.919-.919-1.426-2.153-1.426-3.473s.507-2.554 1.426-3.473l65.918-65.917c.919-.919 2.151-1.425 3.473-1.425s2.553.506 3.473 1.425l31.921 31.92c.919.919 1.426 2.153 1.426 3.473s-.507 2.554-1.426 3.473zm4.242-19.674-23.436-23.435 28.47-28.469c3.528 4.219 7.252 8.31 11.188 12.246 3.93 3.93 8.02 7.659 12.249 11.187l-28.472 28.471zm24.707-48.144c-32.271-32.271-50.043-75.177-50.043-120.814 0-22.656 4.385-44.636 12.744-64.979.213-.383.379-.788.503-1.205 8.471-20.168 20.862-38.698 36.796-54.631 32.271-32.271 75.178-50.043 120.815-50.043s88.544 17.772 120.815 50.043 50.043 75.177 50.043 120.815-17.772 88.544-50.043 120.814c-1.585 1.585-3.211 3.145-4.862 4.673l-10.256-17.764c.341-.335.688-.667 1.024-1.003 58.846-58.846 58.846-154.596 0-213.441-28.506-28.506-66.407-44.205-106.721-44.205s-78.214 15.699-106.72 44.205c-28.507 28.506-44.206 66.407-44.206 106.721s15.699 78.214 44.206 106.721c28.307 28.307 66.546 44.085 106.305 44.199l-11.279 19.536c-41.201-2.808-79.829-20.349-109.122-49.642zm207.867-89.1h-43.881c-3.313 0-6 2.687-6 6v48.106l-30.566 52.943c-39.074 1.847-77.131-12.819-104.84-40.527-26.239-26.24-40.69-61.127-40.69-98.235s14.451-71.996 40.69-98.235c26.24-26.24 61.127-40.69 98.235-40.69s71.996 14.451 98.236 40.69c53.745 53.745 54.154 140.927 1.245 195.194l-6.43-11.136v-48.107c0-3.313-2.687-6-6-6zm-6 12v27.29c-4.584-3.038-10.031-4.678-15.94-4.678s-11.356 1.64-15.94 4.678v-27.29h31.881zm81.745 203.81c-3.146 5.449-8.344 8.45-14.637 8.45h-166.099c-6.292 0-11.49-3.001-14.636-8.451-3.146-5.449-3.146-11.451 0-16.9l83.049-143.845c3.146-5.45 8.345-8.451 14.637-8.451s11.49 3.001 14.636 8.451l83.05 143.846c3.146 5.449 3.146 11.451 0 16.9zm-97.769-38.799c-5.015 0-9.327 1.769-12.819 5.26-3.44 3.441-5.259 7.854-5.259 12.763 0 7.028 3.123 11.206 5.716 13.449 3.501 3.064 7.833 4.684 12.527 4.684s8.902-1.594 12.471-4.758c3.668-3.288 5.607-7.913 5.607-13.375 0-4.935-1.864-9.365-5.392-12.813-3.539-3.457-7.863-5.21-12.852-5.21zm4.649 22.44c-1.338 1.187-2.721 1.715-4.484 1.715-1.819 0-3.288-.544-4.649-1.736-.742-.642-1.594-1.722-1.594-4.396 0-1.752.538-3.072 1.744-4.277 1.224-1.224 2.52-1.746 4.334-1.746s3.196.553 4.466 1.793c1.229 1.202 1.777 2.506 1.777 4.23 0 2.679-.923 3.816-1.594 4.417zm-4.016-125.712c-5.438 0-10.138 1.955-13.595 5.654-3.396 3.635-5.117 8.53-5.117 14.547 0 3.309.238 8.743.73 16.644l2.593 38.66c.003.052.008.104.013.155.525 5.642 1.474 9.926 2.923 13.149 2.096 4.548 6.283 7.157 11.488 7.157s9.288-2.544 11.512-7.141c1.576-3.222 2.562-7.497 3.015-13.035l3.469-39.729c.384-3.933.579-7.775.579-11.42 0-7.045-.968-12.438-2.94-16.451-1.477-3.059-5.345-8.19-14.669-8.19zm5.081 34.956-3.478 39.826c-.405 4.977-1.222 7.517-1.848 8.795-.107.223-.188.322-.188.333-.059.02-.231.058-.533.058-.263 0-.43-.023-.522-.042-.014-.023-.028-.052-.044-.084-.483-1.077-1.37-3.702-1.89-9.217l-2.586-38.553c-.475-7.621-.705-12.812-.705-15.869 0-2.917.617-4.997 1.886-6.354.804-.86 2.078-1.847 4.826-1.847 3.184 0 3.659.985 3.881 1.444.789 1.604 1.729 4.849 1.729 11.196 0 3.257-.176 6.707-.528 10.315z"/></svg>