<?xml version="1.0" encoding="UTF-8"?>
<svg id="Layer_1" data-name="Layer 1" xmlns="http://www.w3.org/2000/svg" viewBox="0 0 28 28">
  <defs>
    <style>
      .cls-1 {
        fill-rule: evenodd;
      }
    </style>
  </defs>
  <path class="cls-1" d="M9.36,19.27s-.04-.02-.06-.03l-1.48.65c-.17.07-.36.04-.49-.09l-1.99-1.99c-.13-.13-.17-.32-.09-.49l.66-1.48c-.42-.72-.74-1.49-.95-2.3l-1.51-.58c-.17-.07-.28-.23-.28-.41v-2.81c0-.18.11-.35.28-.41,0,0,1.51-.58,1.51-.58.21-.81.53-1.58.95-2.3l-.66-1.48c-.07-.17-.04-.36.09-.49l1.99-1.99c.13-.13.32-.17.49-.09,0,0,1.48.66,1.48.66.72-.42,1.49-.74,2.3-.95l.58-1.51c.07-.17.23-.28.41-.28h2.81c.18,0,.35.11.41.28,0,0,.58,1.51.58,1.51.8.21,1.58.53,2.3.95l1.48-.66c.17-.07.36-.04.49.09l1.99,1.99c.13.13.17.32.09.49,0,0-.65,1.48-.65,1.48.42.72.74,1.49.95,2.3l1.51.58c.17.07.28.23.28.41v2.81c0,.18-.11.35-.28.41,0,0-1.51.58-1.51.58-.21.8-.53,1.58-.95,2.3l.65,1.48c.07.17.04.36-.09.49l-1.99,1.99c-.13.13-.32.17-.49.09,0,0-1.48-.65-1.48-.65-.02.01-.04.02-.06.03-.06.41-.11.85-.13,1.35,0,0,0,0,0,0v1.07c0,.7-.47,1.29-1.1,1.48v.73c0,.71-.48,1.31-1.14,1.49v.72c0,.85-.7,1.55-1.54,1.55h-1.44c-.85,0-1.55-.7-1.55-1.55v-.72c-.65-.18-1.13-.78-1.13-1.49v-.73c-.64-.19-1.11-.78-1.11-1.48v-1.09c-.03-.49-.07-.93-.13-1.33h0ZM18.81,18.33s.02,0,.03.01l1.41.62s1.56-1.56,1.56-1.56l-.62-1.41c-.06-.13-.05-.29.03-.41.47-.76.82-1.59,1.02-2.47.03-.14.13-.26.27-.31l1.44-.55v-2.2l-1.44-.55c-.14-.05-.24-.17-.27-.31-.21-.87-.55-1.7-1.02-2.47-.08-.12-.09-.28-.03-.41l.62-1.41-1.56-1.56-1.41.63c-.13.06-.29.05-.41-.03-.76-.47-1.59-.81-2.47-1.02-.14-.03-.26-.13-.31-.27l-.55-1.44h-2.2l-.56,1.44c-.05.14-.17.24-.31.27-.87.21-1.7.55-2.47,1.02-.12.08-.28.09-.41.03l-1.41-.63-1.56,1.56.63,1.41c.06.13.05.29-.03.41-.47.76-.81,1.59-1.02,2.47-.03.14-.13.26-.27.31l-1.44.55v2.2l1.44.55c.14.05.24.17.27.31.21.87.55,1.7,1.02,2.47.08.12.09.28.03.41l-.63,1.41,1.56,1.56,1.41-.62s.02,0,.03-.01c-.38-1.63-1-2.5-1.5-3.4-.52-.91-.93-1.84-.93-3.45,0-4,3.24-7.24,7.24-7.24s7.24,3.24,7.24,7.24c0,1.61-.41,2.54-.93,3.45-.51.89-1.12,1.77-1.5,3.4h0ZM17.62,21.03h-7.24v.66c0,.37.3.66.66.66h5.91c.36,0,.66-.3.66-.66v-.66ZM16.52,23.25h-5.03v.66c0,.37.3.66.66.66h3.7c.36,0,.66-.3.66-.66v-.66ZM15.38,25.46h-2.76v.66c0,.36.3.66.66.66h1.44c.36,0,.66-.3.66-.66v-.66ZM14,5.12c-3.51,0-6.36,2.85-6.36,6.36,0,1.78.58,2.62,1.19,3.67.64,1.1,1.31,2.4,1.52,5.01h7.3c.21-2.61.89-3.91,1.52-5.01.61-1.05,1.19-1.88,1.19-3.67,0-3.51-2.85-6.36-6.36-6.36h0ZM14,6.07c2.81,0,5.09,2.28,5.09,5.09s-2.28,5.09-5.09,5.09-5.09-2.28-5.09-5.09,2.28-5.09,5.09-5.09h0ZM14,6.95c-2.32,0-4.21,1.88-4.21,4.21s1.88,4.21,4.21,4.21,4.21-1.88,4.21-4.21-1.88-4.21-4.21-4.21h0ZM13.56,10.72v-1.43c0-.24.2-.44.44-.44s.44.2.44.44v1.43h1.43c.24,0,.44.2.44.44s-.2.44-.44.44h-1.43v1.43c0,.24-.2.44-.44.44s-.44-.2-.44-.44v-1.43h-1.43c-.24,0-.44-.2-.44-.44s.2-.44.44-.44h1.43Z"/>
</svg>