<svg id="Layer_1" enable-background="new 0 0 66 66" height="512" viewBox="0 0 66 66" width="512" xmlns="http://www.w3.org/2000/svg"><g><g><path d="m53.7 18.7c-.6 0-1-.4-1-1 0-8.1-6.6-14.7-14.7-14.7-5.5 0-10.5 3.1-13.1 8.2-.3.5-.9.7-1.3.4-.5-.3-.7-.9-.4-1.3 2.8-5.8 8.5-9.3 14.8-9.3 9.2 0 16.7 7.5 16.7 16.7 0 .6-.4 1-1 1z"/></g><g><path d="m14.2 40c-.1 0-.1 0-.2 0-7.7-1.7-13-8.3-13-16.2 0-9 7.4-16.4 16.5-16.4 2 0 5.2.5 7.4 1.4.5.2.7.8.5 1.3s-.8.7-1.3.5c-1.7-.7-4.5-1.2-6.6-1.2-8 0-14.5 6.5-14.5 14.4 0 6.9 4.7 12.8 11.4 14.2.5.1.9.6.8 1.2-.1.5-.5.8-1 .8z"/></g><g><path d="m53.3 40.3h-3.3c-.6 0-1-.4-1-1s.4-1 1-1h3.3c5.3 0 9.7-4.4 9.7-9.7s-4.4-9.7-9.7-9.7c-.6 0-1-.4-1-1s.4-1 1-1c6.5 0 11.7 5.2 11.7 11.7s-5.2 11.7-11.7 11.7z"/></g><g><path d="m42 58.6h-24.3c-2.3 0-4.1-1.8-4.1-4.1v-35.5c0-2.3 1.8-4.1 4.1-4.1h24.3c2.3 0 4.1 1.8 4.1 4.1v35.5c0 2.3-1.8 4.1-4.1 4.1zm-24.3-41.7c-1.1 0-2.1 1-2.1 2.1v35.5c0 1.1 1 2.1 2.1 2.1h24.3c1.1 0 2.1-1 2.1-2.1v-35.5c0-1.1-1-2.1-2.1-2.1z"/></g><g><path d="m44.5 65c-.1 0-.2 0-.3 0l-24.2-2.5c-2.2-.3-3.8-2.2-3.7-4.5v-.4c0-.6.4-1 1-1h24.7c1.1 0 2.1-1 2.1-2.1v-32.4c0-.3.1-.5.3-.7s.5-.3.8-.3l3.4.3c1.2.1 2.2.7 2.9 1.5s1 1.9.8 3l-3.6 35.4c-.3 2.1-2.1 3.7-4.2 3.7zm-26.2-6.4c.1 1 .9 1.8 1.9 1.9l24.2 2.5c1.1.1 2.2-.8 2.3-1.9l3.6-35.4c.1-.5-.1-1.1-.4-1.5-.4-.4-.9-.7-1.5-.8l-2.3-.2v31.3c0 2.3-1.8 4.1-4.1 4.1z"/></g><g><g><path d="m24.7 35h-5.2c-.6 0-1-.4-1-1v-5.9c0-.6.4-1 1-1h5.2c.6 0 1 .4 1 1v5.9c0 .6-.4 1-1 1zm-4.2-2h3.2v-3.9h-3.2z"/></g><g><path d="m29.9 35.1h-5.2c-.6 0-1-.4-1-1v-10.9c0-.6.4-1 1-1h5.2c.6 0 1 .4 1 1v10.9c0 .6-.4 1-1 1zm-4.2-2h3.2v-8.9h-3.2z"/></g><g><path d="m35.1 35.1h-5.2c-.6 0-1-.4-1-1v-7.9c0-.6.4-1 1-1h5.2c.6 0 1 .4 1 1v7.9c0 .6-.4 1-1 1zm-4.2-2h3.2v-5.9h-3.2z"/></g><g><path d="m40.3 35.1h-5.2c-.6 0-1-.4-1-1v-13.5c0-.6.4-1 1-1h5.2c.6 0 1 .4 1 1v13.5c0 .6-.4 1-1 1zm-4.2-2h3.2v-11.5h-3.2z"/></g></g><g><path d="m34.1 52.9c-4 0-7.2-3.2-7.2-7.2 0-3.9 3.1-7.1 7.2-7.2 4 0 7.2 3.2 7.2 7.2s-3.2 7.2-7.2 7.2zm0-12.4c-2.9.1-5.2 2.4-5.2 5.2 0 2.9 2.3 5.2 5.2 5.2s5.2-2.3 5.2-5.2-2.3-5.2-5.2-5.2z"/></g><g><path d="m40.2 46.7h-6.2c-.6 0-1-.4-1-1v-6.1c0-.6.4-1 1-1h.4c3.8.2 6.8 3.3 6.8 7.1 0 .6-.4 1-1 1zm-5.2-2h4.1c-.4-2-2-3.6-4.1-4z"/></g><g><path d="m38.4 51.1c-.3 0-.5-.1-.7-.3l-4.4-4.4c-.3-.3-.4-.7-.2-1.1s.5-.6.9-.6h6.2c.6 0 1 .4 1 1 0 1.7-.6 3.4-1.7 4.7l-.4.4c-.2.2-.4.3-.7.3zm-2-4.4 1.9 1.9c.3-.5.6-1.1.8-1.9z"/></g><g><path d="m25.7 40.8h-6.2c-.6 0-1-.4-1-1s.4-1 1-1h6.2c.6 0 1 .4 1 1s-.4 1-1 1z"/></g><g><path d="m24.3 46.5h-4.8c-.6 0-1-.4-1-1s.4-1 1-1h4.8c.6 0 1 .4 1 1s-.4 1-1 1z"/></g><g><path d="m25.7 52.3h-6.2c-.6 0-1-.4-1-1s.4-1 1-1h6.2c.6 0 1 .4 1 1s-.4 1-1 1z"/></g></g></svg>