<?xml version="1.0" encoding="UTF-8"?>
<svg id="Layer_1" data-name="Layer 1" xmlns="http://www.w3.org/2000/svg" viewBox="0 0 28 28">
  <path d="M26.58,13.59h-5.29c-.22,0-.41.18-.41.41,0,3.79-3.09,6.88-6.88,6.88s-6.88-3.09-6.88-6.88c0-.22-.18-.41-.41-.41H1.42c-.22,0-.41.18-.41.41v1.26c0,.17.1.32.26.38l1.9.73c.28,1.29.78,2.5,1.5,3.61l-.83,1.86c-.07.15-.03.33.08.45l1.78,1.78c.12.12.3.15.45.08l1.86-.83c1.11.71,2.32,1.22,3.61,1.5l.73,1.9c.06.16.21.26.38.26h2.51c.17,0,.32-.1.38-.26l.73-1.9c1.29-.28,2.5-.78,3.61-1.5l1.86.83c.15.07.33.03.45-.08l1.78-1.78c.12-.12.15-.3.08-.45l-.83-1.86c.71-1.11,1.22-2.32,1.5-3.61l1.9-.73c.16-.06.26-.21.26-.38v-1.26c0-.22-.18-.41-.41-.41h0ZM26.17,14.98l-1.85.71c-.13.05-.23.16-.25.3-.26,1.34-.78,2.59-1.54,3.72-.08.12-.09.26-.03.39l.8,1.81-1.38,1.38-1.81-.8c-.13-.06-.28-.04-.39.03-1.13.76-2.39,1.28-3.72,1.54-.14.03-.25.12-.3.25l-.71,1.85h-1.96l-.71-1.85c-.05-.13-.16-.23-.3-.25-1.34-.26-2.59-.78-3.72-1.54-.12-.08-.26-.09-.39-.03l-1.81.8-1.38-1.38.8-1.81c.06-.13.04-.28-.03-.39-.76-1.13-1.28-2.39-1.54-3.72-.03-.14-.12-.25-.25-.3l-1.85-.71v-.57h4.49c.21,4.05,3.58,7.29,7.68,7.29s7.47-3.23,7.68-7.29h4.49v.57ZM13.75,12.61h2.21c.22,0,.41-.18.41-.41V1.42c0-.22-.18-.41-.41-.41h-2.21c-.22,0-.41.18-.41.41v10.78c0,.22.18.41.41.41ZM14.15,1.83h1.4v9.97h-1.4V1.83ZM1.42,12.61h2.21c.22,0,.41-.18.41-.41v-4.43c0-.22-.18-.41-.41-.41H1.42c-.22,0-.41.18-.41.41v4.43c0,.22.18.41.41.41ZM1.83,8.18h1.4v3.61h-1.4v-3.61ZM5.53,12.61h2.21c.22,0,.41-.18.41-.41V3.74c0-.22-.18-.41-.41-.41h-2.21c-.22,0-.41.18-.41.41v8.47c0,.22.18.41.41.41ZM5.94,4.14h1.4v7.65h-1.4v-7.65ZM9.64,12.61h2.21c.22,0,.41-.18.41-.41v-6.96c0-.22-.18-.41-.41-.41h-2.21c-.22,0-.41.18-.41.41v6.96c0,.22.18.41.41.41ZM10.05,5.65h1.4v6.15h-1.4v-6.15ZM22.16,11.64c2.66,0,4.83-2.16,4.83-4.83s-2.16-4.83-4.83-4.83-4.83,2.16-4.83,4.83,2.16,4.83,4.83,4.83ZM24.53,10.05l-1.66-2.83h3.28c-.12,1.16-.73,2.17-1.62,2.83ZM26.15,6.41h-3.59v-3.59c1.89.19,3.4,1.7,3.59,3.59h0ZM21.75,2.82v3.99c0,.07.02.14.06.21l2.02,3.44c-.51.23-1.08.37-1.67.37-2.21,0-4.01-1.8-4.01-4.01,0-2.08,1.58-3.79,3.61-3.99Z"/>
</svg>