<?xml version="1.0" encoding="UTF-8"?>
<svg id="Layer_1" data-name="Layer 1" xmlns="http://www.w3.org/2000/svg" viewBox="0 0 28 28">
  <path d="M20.05,27.19c-3.94,0-7.15-3.21-7.15-7.15s3.21-7.15,7.15-7.15,7.15,3.21,7.15,7.15-3.21,7.15-7.15,7.15ZM20.05,14c-3.34,0-6.05,2.71-6.05,6.05s2.71,6.05,6.05,6.05,6.05-2.71,6.05-6.05-2.71-6.05-6.05-6.05Z"/>
  <path d="M20.05,22.8c-.3,0-.55-.25-.55-.55v-.29c0-1.06.56-2.07,1.52-2.78.43-.31.68-.8.68-1.33,0-.91-.74-1.65-1.65-1.65s-1.65.74-1.65,1.65c0,.3-.25.55-.55.55s-.55-.25-.55-.55c0-1.52,1.23-2.75,2.75-2.75s2.75,1.23,2.75,2.75c0,.87-.42,1.7-1.12,2.22-.4.29-1.07.93-1.07,1.89v.29c0,.3-.25.55-.55.55h0Z"/>
  <circle cx="20.05" cy="24.45" r=".55"/>
  <path d="M10.52,17.9c-.08,0-.16-.02-.24-.06-1.35-.67-2.81-.92-4.33-.75-.48.06-.95-.09-1.31-.41-.35-.31-.54-.75-.54-1.21V2.55c0-.82.61-1.53,1.43-1.64,2.63-.39,5.1.34,7.37,2.18,2.26-1.84,4.74-2.57,7.37-2.18.81.11,1.43.82,1.43,1.64v7.6c0,.3-.25.55-.55.55s-.55-.25-.55-.55V2.55c0-.28-.21-.52-.48-.56-2.47-.37-4.72.36-6.85,2.22-.21.18-.52.18-.72,0-2.14-1.86-4.37-2.59-6.85-2.22-.28.04-.49.28-.49.56v12.92c0,.15.06.29.18.39.12.11.28.16.45.14,1.73-.19,3.39.1,4.94.86.27.13.38.46.25.74-.1.19-.29.31-.49.31h0Z"/>
  <path d="M24.45,11.8c-.3,0-.55-.25-.55-.55v-6.6c0-.3-.25-.55-.55-.55h-2.2c-.3,0-.55-.25-.55-.55s.25-.55.55-.55h2.2c.91,0,1.65.74,1.65,1.65v6.6c0,.3-.25.55-.55.55Z"/>
  <path d="M10.15,19.5H2.45c-.91,0-1.65-.74-1.65-1.65V4.65c0-.89.74-1.63,1.64-1.65h2.21c.3,0,.55.25.55.55s-.25.55-.55.55h-2.2c-.3,0-.55.25-.55.55v13.2c0,.3.25.55.55.55h7.7c.3,0,.55.25.55.55s-.25.55-.55.55Z"/>
  <path d="M12.9,14c-.3,0-.55-.25-.55-.55V3.55c0-.3.25-.55.55-.55s.55.25.55.55v9.9c0,.3-.25.55-.55.55Z"/>
</svg>