<?xml version="1.0" encoding="UTF-8"?>
<svg id="Layer_1" data-name="Layer 1" xmlns="http://www.w3.org/2000/svg" viewBox="0 0 28 28">
  <g id="Layer_2" data-name="Layer 2">
    <path d="M22.69,2.06c1.8,0,3.25,1.46,3.26,3.26v17.37c0,1.8-1.46,3.25-3.26,3.26H5.31c-1.8,0-3.25-1.46-3.26-3.26V5.31c0-1.8,1.46-3.25,3.26-3.26h17.37ZM22.69.97H5.31C2.92.97.97,2.92.97,5.31v17.37c0,2.4,1.94,4.34,4.34,4.34h17.37c2.4,0,4.34-1.94,4.34-4.34V5.31c0-2.4-1.94-4.34-4.34-4.34Z"/>
  </g>
  <g id="Layer_3" data-name="Layer 3">
    <path d="M20.51,22.14H7.49c-.9,0-1.63-.73-1.63-1.63V7.49c0-.9.73-1.63,1.63-1.63h13.03c.9,0,1.63.73,1.63,1.63v10.86c0,.3-.24.54-.54.54s-.54-.24-.54-.54V7.49c0-.3-.24-.54-.54-.54H7.49c-.3,0-.54.24-.54.54v13.03c0,.3.24.54.54.54h13.03c.3,0,.54-.24.54-.54s-.24-.54-.54-.54h-11.94c-.3,0-.54-.24-.54-.54s.24-.54.54-.54h11.94c.9,0,1.63.73,1.63,1.63s-.73,1.63-1.63,1.63Z"/>
    <path d="M14,16.71c-.3,0-.54-.24-.54-.54v-6.51c0-.3.24-.54.54-.54s.54.24.54.54v6.51c0,.3-.24.54-.54.54Z"/>
    <path d="M14,16.71c-.14,0-.28-.06-.38-.16l-2.17-2.17c-.21-.22-.2-.56.01-.77.21-.2.54-.2.75,0l1.79,1.79,1.79-1.79c.22-.21.56-.2.77.01.2.21.2.54,0,.75l-2.17,2.17c-.1.1-.24.16-.38.16h0Z"/>
  </g>
</svg>